<svg id="Layer_1" data-name="Layer 1" xmlns="http://www.w3.org/2000/svg" viewBox="0 0 4564.69 4460.33"><defs><style>.cls-1{fill:#7cb380;}.cls-2{font-size:36px;}.cls-15,.cls-2,.cls-37,.cls-40,.cls-41,.cls-44,.cls-46,.cls-53,.cls-8{fill:#fff;}.cls-2,.cls-8{font-family:Calibri-Light, Calibri;font-weight:300;}.cls-3{letter-spacing:-0.01em;}.cls-4{letter-spacing:-0.02em;}.cls-5{letter-spacing:-0.01em;}.cls-6{letter-spacing:-0.01em;}.cls-7{letter-spacing:0em;}.cls-15,.cls-8{font-size:35px;}.cls-9{letter-spacing:0.01em;}.cls-10{letter-spacing:-0.01em;}.cls-11{letter-spacing:-0.02em;}.cls-12{letter-spacing:0em;}.cls-13{letter-spacing:0em;}.cls-14{fill:#b0533b;}.cls-15{font-family:MyriadPro-Regular, Myriad Pro;}.cls-16{letter-spacing:0.01em;}.cls-17{letter-spacing:0em;}.cls-18{letter-spacing:0em;}.cls-19{letter-spacing:0em;}.cls-20{letter-spacing:0em;}.cls-21{letter-spacing:-0.01em;}.cls-22{letter-spacing:0em;}.cls-23{letter-spacing:-0.03em;}.cls-24{letter-spacing:0em;}.cls-25{letter-spacing:0em;}.cls-26{letter-spacing:-0.01em;}.cls-27{letter-spacing:0.01em;}.cls-28{letter-spacing:-0.01em;}.cls-29{letter-spacing:0em;}.cls-30{letter-spacing:0em;}.cls-31{letter-spacing:-0.03em;}.cls-32{letter-spacing:-0.01em;}.cls-33{letter-spacing:0.01em;}.cls-34{letter-spacing:0.02em;}.cls-35{letter-spacing:-0.01em;}.cls-36{fill:#e18a26;}.cls-37,.cls-40{font-size:40px;}.cls-37,.cls-40,.cls-41,.cls-44,.cls-46,.cls-51,.cls-53{font-family:Calibri-Bold, Calibri;font-weight:700;}.cls-38{letter-spacing:-0.01em;}.cls-39{fill:#ed1b36;}.cls-40{letter-spacing:0em;}.cls-41{font-size:39.98px;}.cls-42{letter-spacing:-0.01em;}.cls-43{fill:#8c236c;}.cls-44{font-size:55.08px;}.cls-45{letter-spacing:-0.01em;}.cls-46{font-size:41px;}.cls-47{letter-spacing:-0.01em;}.cls-48{letter-spacing:-0.01em;}.cls-49{letter-spacing:-0.01em;}.cls-50,.cls-51{fill:none;stroke-miterlimit:10;}.cls-50{stroke:#231f20;stroke-width:5px;}.cls-51{font-size:60px;stroke:#00a651;}.cls-52{letter-spacing:-0.01em;}.cls-53{font-size:38px;}.cls-54{letter-spacing:-0.01em;}.cls-55{letter-spacing:0em;}.cls-56{letter-spacing:0em;}.cls-57{letter-spacing:-0.01em;}.cls-58{letter-spacing:-0.01em;}</style></defs><rect class="cls-1" x="1096.95" y="1165.93" width="232.98" height="127.81"/><text class="cls-2" transform="translate(1106.38 1239.69) scale(1.01 1)">Admini<tspan class="cls-3" x="102.06" y="0">s</tspan><tspan x="115.54" y="0">t</tspan><tspan class="cls-4" x="127.37" y="0">r</tspan><tspan class="cls-5" x="139.08" y="0">a</tspan><tspan x="155.67" y="0">tion</tspan></text><rect class="cls-1" x="2336.36" y="689.07" width="232.98" height="127.81"/><text class="cls-2" transform="translate(2380.34 762.83) scale(1.01 1)">Gen_User</text><rect class="cls-1" x="3552.75" y="1153.57" width="232.98" height="127.81"/><text class="cls-2" transform="translate(3636.51 1227.32) scale(1.01 1)">S<tspan class="cls-6" x="16.29" y="0">t</tspan><tspan class="cls-7" x="27.6" y="0">a</tspan><tspan x="44.37" y="0">ff</tspan></text><rect class="cls-1" x="2336.36" y="2366.7" width="232.98" height="127.81"/><text class="cls-8" transform="translate(2338.9 2440.45) scale(1.01 1)">Se<tspan class="cls-9" x="33.14" y="0">r</tspan><tspan x="45.54" y="0">vice </tspan><tspan class="cls-10" x="108.76" y="0">P</tspan><tspan class="cls-11" x="126.19" y="0">r</tspan><tspan class="cls-12" x="137.57" y="0">o</tspan><tspan class="cls-13" x="155.65" y="0">vider</tspan></text><rect class="cls-14" x="2336.36" y="1475.82" width="232.98" height="127.81"/><text class="cls-15" transform="translate(2376.63 1529)"><tspan class="cls-16">M</tspan><tspan class="cls-17" x="28.35" y="0">ai</tspan><tspan class="cls-18" x="53.41" y="0">n</tspan><tspan class="cls-19" x="72.69" y="0">t</tspan><tspan x="84.1" y="0">-</tspan><tspan class="cls-20" x="94.85" y="0">R</tspan><tspan x="113.82" y="0">eq</tspan><tspan class="cls-21" x="0" y="42">C</tspan><tspan x="19.92" y="42">omplai</tspan><tspan class="cls-22" x="121.55" y="42">n</tspan><tspan class="cls-17" x="140.84" y="42">t</tspan></text><rect class="cls-14" x="2335.52" y="1914.06" width="232.98" height="127.81"/><text class="cls-15" transform="translate(2363.46 1967.24)"><tspan class="cls-23">W</tspan><tspan class="cls-24" x="28.46" y="0">o</tspan><tspan class="cls-25" x="47.67" y="0">r</tspan><tspan x="59.25" y="0">k_O</tspan><tspan class="cls-26" x="117.28" y="0">r</tspan><tspan x="128.38" y="0">der</tspan><tspan class="cls-16"><tspan x="-9.55" y="42">M</tspan><tspan class="cls-17" x="18.8" y="42">anageme</tspan><tspan class="cls-22" x="155.78" y="42">n</tspan><tspan class="cls-17" x="175.07" y="42">t</tspan></tspan></text><rect class="cls-14" x="2335.58" y="2883.37" width="232.98" height="127.81"/><text class="cls-15" transform="translate(2378.99 2936.55)">Uni<tspan class="cls-26" x="50.26" y="0">v</tspan><tspan x="66.74" y="0">ersi</tspan><tspan class="cls-27" x="117.77" y="0">t</tspan><tspan x="129.67" y="0">y</tspan><tspan class="cls-28"><tspan x="27.12" y="42">A</tspan><tspan class="cls-29" x="48.33" y="42">ssets</tspan></tspan></text><rect class="cls-14" x="307.02" y="2389.55" width="232.98" height="127.81"/><text class="cls-15" transform="translate(344.16 2442.73)">Biiling <tspan class="cls-30" x="98.21" y="0">A</tspan><tspan x="119.52" y="0">nd</tspan><tspan class="cls-31" x="8.22" y="42">P</tspan><tspan class="cls-32" x="25.93" y="42">a</tspan><tspan x="42.52" y="42">yme</tspan><tspan class="cls-18" x="105.73" y="42">n</tspan><tspan x="125.02" y="42">ts</tspan></text><rect class="cls-14" x="2335.58" y="3587.04" width="232.98" height="127.81"/><text class="cls-15" transform="translate(2352.34 3640.22)"><tspan class="cls-16">M</tspan><tspan x="28.35" y="0">ai</tspan><tspan class="cls-22" x="53.41" y="0">n</tspan><tspan class="cls-19" x="72.69" y="0">t</tspan><tspan x="84.1" y="0">-</tspan><tspan class="cls-33" x="94.85" y="0">H</tspan><tspan x="118.02" y="0">is</tspan><tspan class="cls-28" x="140.07" y="0">t</tspan><tspan x="151.44" y="0">o</tspan><tspan class="cls-34" x="170.66" y="0">r</tspan><tspan class="cls-29" x="182.98" y="0">y</tspan><tspan x="2.17" y="42">and </tspan><tspan class="cls-30" x="65.62" y="42">A</tspan><tspan x="86.94" y="42">nalytics</tspan></text><rect class="cls-14" x="2335.58" y="4014.76" width="232.98" height="127.81"/><text class="cls-15" transform="translate(2399.47 4067.94)"><tspan class="cls-32">S</tspan><tspan class="cls-35" x="16.97" y="0">y</tspan><tspan class="cls-17" x="33.25" y="0">s</tspan><tspan class="cls-28" x="47.11" y="0">t</tspan><tspan x="58.48" y="0">em</tspan><tspan class="cls-30" x="-61.74" y="42">A</tspan><tspan x="-40.42" y="42">nnoun</tspan><tspan class="cls-28" x="56.35" y="42">c</tspan><tspan x="71.82" y="42">eme</tspan><tspan class="cls-18" x="136.08" y="42">n</tspan><tspan x="155.36" y="42">t</tspan></text><polygon class="cls-36" points="1212.72 676.71 1212.72 676.56 1079.88 600.44 1212.72 524.32 1212.72 524.17 1079.63 600.44 1212.72 676.71"/><polygon class="cls-36" points="1212.9 676.67 1212.97 676.63 1345.92 600.44 1212.97 524.25 1212.9 524.21 1212.84 524.25 1212.72 524.32 1079.88 600.44 1212.72 676.56 1212.84 676.63 1212.9 676.67"/><polygon class="cls-36" points="1212.9 524.21 1212.97 524.25 1212.97 524.17 1212.9 524.21"/><polygon class="cls-36" points="1212.97 676.71 1212.97 676.63 1212.9 676.67 1212.97 676.71"/><polygon class="cls-36" points="1212.84 524.17 1212.84 524.25 1212.9 524.21 1212.84 524.17"/><polygon class="cls-36" points="1212.84 676.71 1212.9 676.67 1212.84 676.63 1212.84 676.71"/><text class="cls-37" transform="translate(1145.02 609.78) scale(1.01 1)">Mana<tspan class="cls-38" x="95.92" y="0">g</tspan><tspan x="114.45" y="0">e</tspan></text><polygon class="cls-36" points="1608.5 829.25 1608.5 829.1 1475.66 752.98 1608.5 676.85 1608.5 676.71 1475.41 752.98 1608.5 829.25"/><polygon class="cls-36" points="1608.68 829.21 1608.75 829.17 1741.71 752.98 1608.75 676.79 1608.68 676.75 1608.62 676.79 1608.5 676.85 1475.66 752.98 1608.5 829.1 1608.62 829.17 1608.68 829.21"/><polygon class="cls-36" points="1608.68 676.75 1608.75 676.79 1608.75 676.71 1608.68 676.75"/><polygon class="cls-36" points="1608.75 829.25 1608.75 829.17 1608.68 829.21 1608.75 829.25"/><polygon class="cls-36" points="1608.62 676.71 1608.62 676.79 1608.68 676.75 1608.62 676.71"/><polygon class="cls-36" points="1608.62 829.25 1608.68 829.21 1608.62 829.17 1608.62 829.25"/><text class="cls-37" transform="translate(1540.8 762.31) scale(1.01 1)">Mana<tspan class="cls-38" x="95.92" y="0">g</tspan><tspan x="114.45" y="0">e</tspan></text><polygon class="cls-39" points="2452.01 1315.96 2452.01 1315.82 2319.18 1239.69 2452.01 1163.57 2452.01 1163.42 2318.92 1239.69 2452.01 1315.96"/><polygon class="cls-39" points="2452.2 1315.92 2452.26 1315.88 2585.22 1239.69 2452.26 1163.5 2452.2 1163.46 2452.13 1163.5 2452.01 1163.57 2319.18 1239.69 2452.01 1315.82 2452.13 1315.88 2452.2 1315.92"/><polygon class="cls-39" points="2452.2 1163.46 2452.26 1163.5 2452.26 1163.42 2452.2 1163.46"/><polygon class="cls-39" points="2452.26 1315.96 2452.26 1315.88 2452.2 1315.92 2452.26 1315.96"/><polygon class="cls-39" points="2452.13 1163.42 2452.13 1163.5 2452.2 1163.46 2452.13 1163.42"/><polygon class="cls-39" points="2452.13 1315.96 2452.2 1315.92 2452.13 1315.88 2452.13 1315.96"/><text class="cls-40" transform="translate(2392.93 1249.03) scale(1.01 1)">Submit</text><polygon class="cls-39" points="1848.4 1627.88 1848.4 1627.73 1715.56 1551.65 1848.4 1475.56 1848.4 1475.42 1715.31 1551.65 1848.4 1627.88"/><polygon class="cls-39" points="1848.58 1627.84 1848.65 1627.8 1981.6 1551.65 1848.65 1475.5 1848.58 1475.46 1848.51 1475.5 1848.4 1475.56 1715.56 1551.65 1848.4 1627.73 1848.51 1627.8 1848.58 1627.84"/><polygon class="cls-39" points="1848.58 1475.46 1848.65 1475.5 1848.65 1475.42 1848.58 1475.46"/><polygon class="cls-39" points="1848.65 1627.88 1848.65 1627.8 1848.58 1627.84 1848.65 1627.88"/><polygon class="cls-39" points="1848.51 1475.42 1848.51 1475.5 1848.58 1475.46 1848.51 1475.42"/><polygon class="cls-39" points="1848.51 1627.88 1848.58 1627.84 1848.51 1627.8 1848.51 1627.88"/><text class="cls-41" transform="translate(1780.69 1560.98) scale(1.01 1)">Mana<tspan class="cls-42" x="95.87" y="0">g</tspan><tspan x="114.39" y="0">e</tspan></text><polygon class="cls-39" points="423.45 1615.95 423.45 1615.81 290.61 1539.72 423.45 1463.64 423.45 1463.49 290.36 1539.72 423.45 1615.95"/><polygon class="cls-39" points="423.63 1615.91 423.7 1615.88 556.65 1539.72 423.7 1463.57 423.63 1463.53 423.56 1463.57 423.45 1463.64 290.61 1539.72 423.45 1615.81 423.56 1615.88 423.63 1615.91"/><polygon class="cls-39" points="423.63 1463.53 423.7 1463.57 423.7 1463.49 423.63 1463.53"/><polygon class="cls-39" points="423.7 1615.95 423.7 1615.88 423.63 1615.91 423.7 1615.95"/><polygon class="cls-39" points="423.56 1463.49 423.56 1463.57 423.63 1463.53 423.56 1463.49"/><polygon class="cls-39" points="423.56 1615.95 423.63 1615.91 423.56 1615.88 423.56 1615.95"/><text class="cls-41" transform="translate(355.75 1549.05) scale(1.01 1)">Mana<tspan class="cls-42" x="95.87" y="0">g</tspan><tspan x="114.39" y="0">e</tspan></text><polygon class="cls-39" points="1817.73 2052.81 1817.73 2052.66 1684.9 1976.58 1817.73 1900.49 1817.73 1900.35 1684.64 1976.58 1817.73 2052.81"/><polygon class="cls-39" points="1817.92 2052.77 1817.98 2052.73 1950.94 1976.58 1817.98 1900.42 1817.92 1900.38 1817.85 1900.42 1817.73 1900.49 1684.9 1976.58 1817.73 2052.66 1817.85 2052.73 1817.92 2052.77"/><polygon class="cls-39" points="1817.92 1900.38 1817.98 1900.42 1817.98 1900.35 1817.92 1900.38"/><polygon class="cls-39" points="1817.98 2052.81 1817.98 2052.73 1817.92 2052.77 1817.98 2052.81"/><polygon class="cls-39" points="1817.85 1900.35 1817.85 1900.42 1817.92 1900.38 1817.85 1900.35"/><polygon class="cls-39" points="1817.85 2052.81 1817.92 2052.77 1817.85 2052.73 1817.85 2052.81"/><text class="cls-41" transform="translate(1750.03 1985.91) scale(1.01 1)">Mana<tspan class="cls-42" x="95.87" y="0">g</tspan><tspan x="114.39" y="0">e</tspan></text><polygon class="cls-39" points="1863.44 3023.5 1863.44 3023.36 1730.6 2947.27 1863.44 2871.19 1863.44 2871.04 1730.35 2947.27 1863.44 3023.5"/><polygon class="cls-39" points="1863.63 3023.46 1863.69 3023.43 1996.65 2947.27 1863.69 2871.12 1863.63 2871.08 1863.56 2871.12 1863.44 2871.19 1730.6 2947.27 1863.44 3023.36 1863.56 3023.43 1863.63 3023.46"/><polygon class="cls-39" points="1863.63 2871.08 1863.69 2871.12 1863.69 2871.04 1863.63 2871.08"/><polygon class="cls-39" points="1863.69 3023.5 1863.69 3023.43 1863.63 3023.46 1863.69 3023.5"/><polygon class="cls-39" points="1863.56 2871.04 1863.56 2871.12 1863.63 2871.08 1863.56 2871.04"/><polygon class="cls-39" points="1863.56 3023.5 1863.63 3023.46 1863.56 3023.43 1863.56 3023.5"/><text class="cls-41" transform="translate(1795.74 2956.6) scale(1.01 1)">Mana<tspan class="cls-42" x="95.87" y="0">g</tspan><tspan x="114.39" y="0">e</tspan></text><polygon class="cls-39" points="1848.28 3728.05 1848.28 3727.9 1715.44 3651.82 1848.28 3575.73 1848.28 3575.59 1715.19 3651.82 1848.28 3728.05"/><polygon class="cls-39" points="1848.46 3728.01 1848.53 3727.97 1981.49 3651.82 1848.53 3575.67 1848.46 3575.63 1848.4 3575.67 1848.28 3575.73 1715.44 3651.82 1848.28 3727.9 1848.4 3727.97 1848.46 3728.01"/><polygon class="cls-39" points="1848.46 3575.63 1848.53 3575.67 1848.53 3575.59 1848.46 3575.63"/><polygon class="cls-39" points="1848.53 3728.05 1848.53 3727.97 1848.46 3728.01 1848.53 3728.05"/><polygon class="cls-39" points="1848.4 3575.59 1848.4 3575.67 1848.46 3575.63 1848.4 3575.59"/><polygon class="cls-39" points="1848.4 3728.05 1848.46 3728.01 1848.4 3727.97 1848.4 3728.05"/><text class="cls-41" transform="translate(1780.58 3661.15) scale(1.01 1)">Mana<tspan class="cls-42" x="95.87" y="0">g</tspan><tspan x="114.39" y="0">e</tspan></text><polygon class="cls-39" points="1848.22 4154.9 1848.22 4154.76 1715.38 4078.67 1848.22 4002.58 1848.22 4002.44 1715.13 4078.67 1848.22 4154.9"/><polygon class="cls-39" points="1848.41 4154.86 1848.47 4154.82 1981.43 4078.67 1848.47 4002.52 1848.41 4002.48 1848.34 4002.52 1848.22 4002.58 1715.38 4078.67 1848.22 4154.76 1848.34 4154.82 1848.41 4154.86"/><polygon class="cls-39" points="1848.41 4002.48 1848.47 4002.52 1848.47 4002.44 1848.41 4002.48"/><polygon class="cls-39" points="1848.47 4154.9 1848.47 4154.82 1848.41 4154.86 1848.47 4154.9"/><polygon class="cls-39" points="1848.34 4002.44 1848.34 4002.52 1848.41 4002.48 1848.34 4002.44"/><polygon class="cls-39" points="1848.34 4154.9 1848.41 4154.86 1848.34 4154.82 1848.34 4154.9"/><text class="cls-41" transform="translate(1780.52 4088) scale(1.01 1)">Mana<tspan class="cls-42" x="95.87" y="0">g</tspan><tspan x="114.39" y="0">e</tspan></text><polygon class="cls-43" points="810.19 2746.17 810.19 2746.02 677.35 2669.9 810.19 2593.77 810.19 2593.63 677.1 2669.9 810.19 2746.17"/><polygon class="cls-43" points="810.37 2746.13 810.44 2746.09 943.39 2669.9 810.44 2593.71 810.37 2593.67 810.3 2593.71 810.19 2593.77 677.35 2669.9 810.19 2746.02 810.3 2746.09 810.37 2746.13"/><polygon class="cls-43" points="810.37 2593.67 810.44 2593.71 810.44 2593.63 810.37 2593.67"/><polygon class="cls-43" points="810.44 2746.17 810.44 2746.09 810.37 2746.13 810.44 2746.17"/><polygon class="cls-43" points="810.3 2593.63 810.3 2593.71 810.37 2593.67 810.3 2593.63"/><polygon class="cls-43" points="810.3 2746.17 810.37 2746.13 810.3 2746.09 810.3 2746.17"/><text class="cls-44" transform="translate(751.85 2682.39) scale(1.01 1)"><tspan class="cls-45">R</tspan><tspan x="30.2" y="0">ead</tspan></text><polygon class="cls-43" points="3057.24 2506.87 3057.24 2506.73 2924.4 2430.6 3057.24 2354.48 3057.24 2354.33 2924.15 2430.6 3057.24 2506.87"/><polygon class="cls-43" points="3057.42 2506.83 3057.49 2506.79 3190.45 2430.6 3057.49 2354.41 3057.42 2354.37 3057.36 2354.41 3057.24 2354.48 2924.4 2430.6 3057.24 2506.73 3057.36 2506.79 3057.42 2506.83"/><polygon class="cls-43" points="3057.42 2354.37 3057.49 2354.41 3057.49 2354.33 3057.42 2354.37"/><polygon class="cls-43" points="3057.49 2506.87 3057.49 2506.79 3057.42 2506.83 3057.49 2506.87"/><polygon class="cls-43" points="3057.36 2354.33 3057.36 2354.41 3057.42 2354.37 3057.36 2354.33"/><polygon class="cls-43" points="3057.36 2506.87 3057.42 2506.83 3057.36 2506.79 3057.36 2506.87"/><text class="cls-44" transform="translate(2998.9 2443.09) scale(1.01 1)"><tspan class="cls-45">R</tspan><tspan x="30.2" y="0">ead</tspan></text><polygon class="cls-43" points="4158.31 829.1 4158.31 828.96 4025.48 752.83 4158.31 676.71 4158.31 676.56 4025.23 752.83 4158.31 829.1"/><polygon class="cls-43" points="4158.5 829.06 4158.57 829.02 4291.52 752.83 4158.57 676.64 4158.5 676.6 4158.43 676.64 4158.31 676.71 4025.48 752.83 4158.31 828.96 4158.43 829.02 4158.5 829.06"/><polygon class="cls-43" points="4158.5 676.6 4158.57 676.64 4158.57 676.56 4158.5 676.6"/><polygon class="cls-43" points="4158.57 829.1 4158.57 829.02 4158.5 829.06 4158.57 829.1"/><polygon class="cls-43" points="4158.43 676.56 4158.43 676.64 4158.5 676.6 4158.43 676.56"/><polygon class="cls-43" points="4158.43 829.1 4158.5 829.06 4158.43 829.02 4158.43 829.1"/><text class="cls-44" transform="translate(4099.97 765.32) scale(1.01 1)"><tspan class="cls-45">R</tspan><tspan x="30.2" y="0">ead</tspan></text><polygon class="cls-43" points="3669.04 1735.35 3669.04 1735.2 3536.2 1659.08 3669.04 1582.95 3669.04 1582.81 3535.95 1659.08 3669.04 1735.35"/><polygon class="cls-43" points="3669.22 1735.31 3669.29 1735.27 3802.24 1659.08 3669.29 1582.88 3669.22 1582.85 3669.15 1582.88 3669.04 1582.95 3536.2 1659.08 3669.04 1735.2 3669.15 1735.27 3669.22 1735.31"/><polygon class="cls-43" points="3669.22 1582.85 3669.29 1582.88 3669.29 1582.81 3669.22 1582.85"/><polygon class="cls-43" points="3669.29 1735.35 3669.29 1735.27 3669.22 1735.31 3669.29 1735.35"/><polygon class="cls-43" points="3669.15 1582.81 3669.15 1582.88 3669.22 1582.85 3669.15 1582.81"/><polygon class="cls-43" points="3669.15 1735.35 3669.22 1735.31 3669.15 1735.27 3669.15 1735.35"/><text class="cls-44" transform="translate(3610.7 1671.56) scale(1.01 1)"><tspan class="cls-45">R</tspan><tspan x="30.2" y="0">ead</tspan></text><polygon class="cls-43" points="2098.57 3401.17 2098.57 3401.02 1965.73 3324.9 2098.57 3248.77 2098.57 3248.63 1965.48 3324.9 2098.57 3401.17"/><polygon class="cls-43" points="2098.75 3401.13 2098.82 3401.09 2231.77 3324.9 2098.82 3248.7 2098.75 3248.67 2098.68 3248.7 2098.57 3248.77 1965.73 3324.9 2098.57 3401.02 2098.68 3401.09 2098.75 3401.13"/><polygon class="cls-43" points="2098.75 3248.67 2098.82 3248.7 2098.82 3248.63 2098.75 3248.67"/><polygon class="cls-43" points="2098.82 3401.17 2098.82 3401.09 2098.75 3401.13 2098.82 3401.17"/><polygon class="cls-43" points="2098.68 3248.63 2098.68 3248.7 2098.75 3248.67 2098.68 3248.63"/><polygon class="cls-43" points="2098.68 3401.17 2098.75 3401.13 2098.68 3401.09 2098.68 3401.17"/><text class="cls-46" transform="translate(2006.39 3337.39) scale(1.01 1)">Fi<tspan class="cls-47" x="28.89" y="0">t</tspan><tspan x="42.56" y="0">ch_D</tspan><tspan class="cls-48" x="127.98" y="0">a</tspan><tspan class="cls-49" x="147.84" y="0">t</tspan><tspan x="161.66" y="0">a</tspan></text><polygon class="cls-43" points="423.39 3727.21 423.39 3727.07 290.55 3650.94 423.39 3574.82 423.39 3574.68 290.3 3650.94 423.39 3727.21"/><polygon class="cls-43" points="423.57 3727.17 423.64 3727.14 556.6 3650.94 423.64 3574.75 423.57 3574.72 423.51 3574.75 423.39 3574.82 290.55 3650.94 423.39 3727.07 423.51 3727.14 423.57 3727.17"/><polygon class="cls-43" points="423.57 3574.72 423.64 3574.75 423.64 3574.68 423.57 3574.72"/><polygon class="cls-43" points="423.64 3727.21 423.64 3727.14 423.57 3727.17 423.64 3727.21"/><polygon class="cls-43" points="423.51 3574.68 423.51 3574.75 423.57 3574.72 423.51 3574.68"/><polygon class="cls-43" points="423.51 3727.21 423.57 3727.17 423.51 3727.14 423.51 3727.21"/><text class="cls-46" transform="translate(331.21 3663.43) scale(1.01 1)">Fi<tspan class="cls-47" x="28.89" y="0">t</tspan><tspan x="42.56" y="0">ch_D</tspan><tspan class="cls-48" x="127.98" y="0">a</tspan><tspan class="cls-49" x="147.84" y="0">t</tspan><tspan x="161.66" y="0">a</tspan></text><polygon class="cls-43" points="2452.79 3400.17 2452.79 3400.02 2319.95 3323.9 2452.79 3247.77 2452.79 3247.63 2319.7 3323.9 2452.79 3400.17"/><polygon class="cls-43" points="2452.97 3400.13 2453.04 3400.09 2585.99 3323.9 2453.04 3247.7 2452.97 3247.67 2452.91 3247.7 2452.79 3247.77 2319.95 3323.9 2452.79 3400.02 2452.91 3400.09 2452.97 3400.13"/><polygon class="cls-43" points="2452.97 3247.67 2453.04 3247.7 2453.04 3247.63 2452.97 3247.67"/><polygon class="cls-43" points="2453.04 3400.17 2453.04 3400.09 2452.97 3400.13 2453.04 3400.17"/><polygon class="cls-43" points="2452.91 3247.63 2452.91 3247.7 2452.97 3247.67 2452.91 3247.63"/><polygon class="cls-43" points="2452.91 3400.17 2452.97 3400.13 2452.91 3400.09 2452.91 3400.17"/><text class="cls-46" transform="translate(2360.61 3336.39) scale(1.01 1)">Fi<tspan class="cls-47" x="28.89" y="0">t</tspan><tspan x="42.56" y="0">ch_D</tspan><tspan class="cls-48" x="127.98" y="0">a</tspan><tspan class="cls-49" x="147.84" y="0">t</tspan><tspan x="161.66" y="0">a</tspan></text><polygon class="cls-39" points="3123.98 1295.3 3123.98 1295.15 2991.14 1219.03 3123.98 1142.9 3123.98 1142.76 2990.89 1219.03 3123.98 1295.3"/><polygon class="cls-39" points="3124.16 1295.26 3124.23 1295.22 3257.18 1219.03 3124.23 1142.84 3124.16 1142.8 3124.09 1142.84 3123.98 1142.9 2991.14 1219.03 3123.98 1295.15 3124.09 1295.22 3124.16 1295.26"/><polygon class="cls-39" points="3124.16 1142.8 3124.23 1142.84 3124.23 1142.76 3124.16 1142.8"/><polygon class="cls-39" points="3124.23 1295.3 3124.23 1295.22 3124.16 1295.26 3124.23 1295.3"/><polygon class="cls-39" points="3124.09 1142.76 3124.09 1142.84 3124.16 1142.8 3124.09 1142.76"/><polygon class="cls-39" points="3124.09 1295.3 3124.16 1295.26 3124.09 1295.22 3124.09 1295.3"/><text class="cls-37" transform="translate(3056.28 1228.36) scale(1.01 1)">Mana<tspan class="cls-38" x="95.92" y="0">g</tspan><tspan x="114.45" y="0">e</tspan></text><polygon class="cls-36" points="1817.93 2509.72 1817.93 2509.58 1685.09 2433.45 1817.93 2357.33 1817.93 2357.18 1684.84 2433.45 1817.93 2509.72"/><polygon class="cls-36" points="1818.11 2509.68 1818.18 2509.65 1951.13 2433.45 1818.18 2357.26 1818.11 2357.22 1818.04 2357.26 1817.93 2357.33 1685.09 2433.45 1817.93 2509.58 1818.04 2509.65 1818.11 2509.68"/><polygon class="cls-36" points="1818.11 2357.22 1818.18 2357.26 1818.18 2357.18 1818.11 2357.22"/><polygon class="cls-36" points="1818.18 2509.72 1818.18 2509.65 1818.11 2509.68 1818.18 2509.72"/><polygon class="cls-36" points="1818.04 2357.18 1818.04 2357.26 1818.11 2357.22 1818.04 2357.18"/><polygon class="cls-36" points="1818.04 2509.72 1818.11 2509.68 1818.04 2509.65 1818.04 2509.72"/><text class="cls-37" transform="translate(1750.23 2442.79) scale(1.01 1)">Mana<tspan class="cls-38" x="95.92" y="0">g</tspan><tspan x="114.45" y="0">e</tspan></text><line class="cls-50" x1="1213.44" y1="1165.93" x2="1213.44" y2="676.71"/><polyline class="cls-50" points="1268.21 1165.93 1268.21 752.98 1475.66 752.98"/><polyline class="cls-50" points="1345.92 600.44 3669.24 600.44 3669.24 1153.57"/><path class="cls-50" d="M1212.22,1290.57" transform="translate(0.5 3.17)"/><polyline class="cls-50" points="1212.72 1293.74 1212.72 4078.67 1715.38 4078.67"/><line class="cls-50" x1="1212.72" y1="1551.65" x2="1715.56" y2="1551.65"/><line class="cls-50" x1="1212.72" y1="1977.97" x2="1684.9" y2="1977.97"/><line class="cls-50" x1="1212.72" y1="2433.45" x2="1685.09" y2="2433.45"/><line class="cls-50" x1="1212.72" y1="2947.27" x2="1730.6" y2="2947.27"/><line class="cls-50" x1="1213.44" y1="3651.82" x2="1715.44" y2="3651.82"/><polyline class="cls-50" points="1096.95 1227.32 422.79 1227.32 422.79 1463.57"/><line class="cls-50" x1="423.56" y1="1615.88" x2="423.56" y2="2389.55"/><line class="cls-50" x1="422.79" y1="2517.36" x2="422.79" y2="3574.75"/><polyline class="cls-50" points="423.51 3727.14 423.51 3852.6 2453.04 3852.6 2453.04 3714.85"/><polyline class="cls-50" points="481.36 2517.36 481.36 2669.9 677.35 2669.9"/><polyline class="cls-50" points="943.39 2669.9 2453.04 2669.9 2453.04 2494.51"/><line class="cls-50" x1="1981.43" y1="4078.67" x2="2336.36" y2="4078.67"/><line class="cls-50" x1="1981.49" y1="3651.82" x2="2336.36" y2="3651.82"/><line class="cls-50" x1="1996.65" y1="2947.27" x2="2336.36" y2="2947.27"/><line class="cls-50" x1="1951.13" y1="2433.45" x2="2336.36" y2="2433.45"/><line class="cls-50" x1="1950.94" y1="1976.58" x2="2336.36" y2="1976.58"/><polyline class="cls-50" points="2098.68 3401.09 2098.68 3587.04 2335.58 3587.04"/><polyline class="cls-50" points="2098.68 3248.7 2098.68 1578.16 2336.36 1578.16"/><line class="cls-50" x1="2453.04" y1="3587.04" x2="2453.04" y2="3400.09"/><line class="cls-50" x1="2452.91" y1="3247.71" x2="2452.01" y2="3011.18"/><line class="cls-50" x1="2569.34" y1="2433.45" x2="2924.4" y2="2433.45"/><polyline class="cls-50" points="3057.42 2506.83 3057.42 4078.67 2568.56 4078.67"/><line class="cls-50" x1="1741.71" y1="752.98" x2="2335.52" y2="752.98"/><line class="cls-50" x1="2452.01" y1="816.88" x2="2452.01" y2="1163.42"/><line class="cls-50" x1="2452.13" y1="1315.88" x2="2452.13" y2="1475.82"/><polyline class="cls-50" points="3124.09 1295.22 3124.09 1529 2569.34 1529"/><line class="cls-50" x1="3669.29" y1="1281.38" x2="3669.29" y2="1582.85"/><polyline class="cls-50" points="3669.15 1735.27 3669.15 4142.57 2568.56 4142.57"/><line class="cls-50" x1="2569.34" y1="752.98" x2="4025.48" y2="752.98"/><polyline class="cls-50" points="4158.43 829.02 4158.43 4233.17 2452.01 4233.17 2452.01 4142.31"/><text class="cls-51" transform="translate(147.07 203.74)">Designed <tspan class="cls-52" x="243.31" y="0">B</tspan><tspan x="276.36" y="0">y M.Sohail</tspan></text><text class="cls-51" transform="translate(4025.48 49.46)">Designed <tspan class="cls-52" x="243.31" y="0">B</tspan><tspan x="276.36" y="0">y M.Sohail</tspan></text><text class="cls-51" transform="translate(4025.48 4408.03)">Designed <tspan class="cls-52" x="243.31" y="0">B</tspan><tspan x="276.36" y="0">y M.Sohail</tspan></text><text class="cls-51" transform="translate(0.5 4438.88)">Designed <tspan class="cls-52" x="243.31" y="0">B</tspan><tspan x="276.36" y="0">y M.Sohail</tspan></text><line class="cls-50" x1="1434.32" y1="752.07" x2="1482.07" y2="779.64"/><line class="cls-50" x1="1481.74" y1="724.87" x2="1433.99" y2="752.44"/><line class="cls-50" x1="2292.32" y1="752.07" x2="2340.07" y2="779.64"/><line class="cls-50" x1="2339.74" y1="724.87" x2="2291.99" y2="752.44"/><line class="cls-50" x1="2451.85" y1="1123.54" x2="2479.42" y2="1171.29"/><line class="cls-50" x1="2424.64" y1="1170.96" x2="2452.21" y2="1123.21"/><line class="cls-50" x1="1213.07" y1="720.98" x2="1240.1" y2="672.92"/><line class="cls-50" x1="1185.34" y1="673.86" x2="1213.44" y2="721.3"/><line class="cls-50" x1="3669.72" y1="1105.68" x2="3641.05" y2="1152.78"/><line class="cls-50" x1="3695.82" y1="1153.72" x2="3669.36" y2="1105.34"/><line class="cls-50" x1="3307.25" y1="1219.54" x2="3259.55" y2="1191.88"/><line class="cls-50" x1="3259.78" y1="1246.65" x2="3307.58" y2="1219.17"/><line class="cls-50" x1="3056.67" y1="2096.74" x2="3029.52" y2="2144.73"/><line class="cls-50" x1="3084.29" y1="2143.92" x2="3056.3" y2="2096.41"/><line class="cls-50" x1="3979.16" y1="753.37" x2="4027.61" y2="779.68"/><line class="cls-50" x1="4025.85" y1="724.94" x2="3978.84" y2="753.75"/><line class="cls-50" x1="3669.19" y1="1546.02" x2="3640.47" y2="1593.09"/><line class="cls-50" x1="3695.24" y1="1594.09" x2="3668.83" y2="1545.68"/><line class="cls-50" x1="2291.99" y1="724.87" x2="2291.99" y2="779.64"/><line class="cls-50" x1="3640.47" y1="1105.34" x2="3695.82" y2="1105.34"/><line class="cls-50" x1="2451.85" y1="1428.54" x2="2479.42" y2="1476.29"/><line class="cls-50" x1="2424.64" y1="1475.96" x2="2452.21" y2="1428.21"/><line class="cls-50" x1="2424.64" y1="1432.11" x2="2479.42" y2="1432.11"/><line class="cls-50" x1="2616.74" y1="1529.13" x2="2568.92" y2="1556.58"/><line class="cls-50" x1="2569.39" y1="1501.81" x2="2617.07" y2="1529.5"/><line class="cls-50" x1="2613.24" y1="1501.92" x2="2613.1" y2="1556.69"/><line class="cls-50" x1="2288.88" y1="1506.97" x2="2337" y2="1480.04"/><line class="cls-50" x1="2335.94" y1="1534.81" x2="2288.56" y2="1506.6"/><line class="cls-50" x1="2288.19" y1="1534.17" x2="2288.92" y2="1479.4"/><line class="cls-50" x1="2288.88" y1="1577.97" x2="2337" y2="1551.04"/><line class="cls-50" x1="2335.94" y1="1605.81" x2="2288.56" y2="1577.6"/><line class="cls-50" x1="2288.19" y1="1605.17" x2="2288.92" y2="1550.4"/><line class="cls-50" x1="2288.54" y1="1976.44" x2="2336.65" y2="1949.52"/><line class="cls-50" x1="2335.59" y1="2004.28" x2="2288.21" y2="1976.07"/><line class="cls-50" x1="2287.84" y1="2003.64" x2="2288.58" y2="1948.87"/><line class="cls-50" x1="2289.62" y1="2946.6" x2="2337.74" y2="2919.67"/><line class="cls-50" x1="2336.67" y1="2974.43" x2="2289.29" y2="2946.23"/><line class="cls-50" x1="2288.92" y1="2973.79" x2="2289.66" y2="2919.03"/><line class="cls-50" x1="2287.62" y1="3651.6" x2="2335.74" y2="3624.67"/><line class="cls-50" x1="2334.67" y1="3679.43" x2="2287.29" y2="3651.23"/><line class="cls-50" x1="2286.92" y1="3678.79" x2="2287.66" y2="3624.03"/><line class="cls-50" x1="2287.62" y1="4078.6" x2="2335.74" y2="4051.67"/><line class="cls-50" x1="2334.67" y1="4106.43" x2="2287.29" y2="4078.23"/><line class="cls-50" x1="2286.92" y1="4105.79" x2="2287.66" y2="4051.03"/><line class="cls-50" x1="2452.99" y1="4190.5" x2="2425.9" y2="4142.48"/><line class="cls-50" x1="2480.66" y1="4143.34" x2="2452.62" y2="4190.82"/><line class="cls-50" x1="2480.19" y1="4191.1" x2="2425.42" y2="4190.56"/><line class="cls-50" x1="2288.19" y1="2433.47" x2="2336.31" y2="2406.54"/><line class="cls-50" x1="2335.24" y1="2461.31" x2="2287.87" y2="2433.1"/><line class="cls-50" x1="2287.5" y1="2460.67" x2="2288.23" y2="2405.9"/><line class="cls-50" x1="2452.16" y1="2318.15" x2="2479.59" y2="2365.98"/><line class="cls-50" x1="2424.82" y1="2365.49" x2="2452.53" y2="2317.82"/><line class="cls-50" x1="2424.96" y1="2317.74" x2="2479.73" y2="2317.9"/><line class="cls-50" x1="2616.5" y1="4079.14" x2="2568.37" y2="4106.06"/><line class="cls-50" x1="2569.45" y1="4051.3" x2="2616.82" y2="4079.52"/><line class="cls-50" x1="2617.2" y1="4051.95" x2="2616.45" y2="4106.72"/><line class="cls-50" x1="423.37" y1="2340.39" x2="451.02" y2="2388.1"/><line class="cls-50" x1="396.25" y1="2387.86" x2="423.74" y2="2340.06"/><line class="cls-50" x1="396.17" y1="2340.11" x2="450.94" y2="2340.01"/><line class="cls-50" x1="481.13" y1="2566.52" x2="508.78" y2="2518.81"/><line class="cls-50" x1="454.01" y1="2519.05" x2="481.5" y2="2566.85"/><line class="cls-50" x1="453.93" y1="2566.8" x2="508.7" y2="2566.9"/><line class="cls-50" x1="422.56" y1="2566.58" x2="450.21" y2="2518.87"/><line class="cls-50" x1="395.44" y1="2519.11" x2="422.93" y2="2566.91"/><line class="cls-50" x1="395.36" y1="2566.86" x2="450.13" y2="2566.95"/><line class="cls-50" x1="1672.76" y1="1551.14" x2="1722.16" y2="1526.65"/><line class="cls-50" x1="1718.36" y1="1581.29" x2="1672.45" y2="1550.75"/><line class="cls-50" x1="1642.72" y1="1978.47" x2="1690.68" y2="1951.25"/><line class="cls-50" x1="1689.94" y1="2006.02" x2="1642.4" y2="1978.1"/><line class="cls-50" x1="1637.13" y1="2433.28" x2="1685.09" y2="2406.07"/><line class="cls-50" x1="1684.35" y1="2460.84" x2="1636.81" y2="2432.91"/><line class="cls-50" x1="2878.13" y1="2433.28" x2="2926.09" y2="2406.07"/><line class="cls-50" x1="2925.35" y1="2460.84" x2="2877.81" y2="2432.91"/><line class="cls-50" x1="992.29" y1="2669.73" x2="944.33" y2="2642.51"/><line class="cls-50" x1="945.07" y1="2697.28" x2="992.62" y2="2669.36"/><line class="cls-50" x1="424.22" y1="3773.27" x2="450.15" y2="3724.6"/><line class="cls-50" x1="395.42" y1="3726.8" x2="424.6" y2="3773.58"/><line class="cls-50" x1="1683.4" y1="2947.1" x2="1731.36" y2="2919.89"/><line class="cls-50" x1="1730.62" y1="2974.66" x2="1683.08" y2="2946.73"/><line class="cls-50" x1="1667.49" y1="3651.65" x2="1715.44" y2="3624.43"/><line class="cls-50" x1="1714.71" y1="3679.2" x2="1667.16" y2="3651.28"/><line class="cls-50" x1="2453.28" y1="3448.29" x2="2426.16" y2="3400.28"/><line class="cls-50" x1="2480.93" y1="3401.13" x2="2452.9" y2="3448.62"/><line class="cls-50" x1="2452.28" y1="3059.29" x2="2425.16" y2="3011.28"/><line class="cls-50" x1="2479.93" y1="3012.13" x2="2451.9" y2="3059.62"/><line class="cls-50" x1="1673.67" y1="4078.5" x2="1721.63" y2="4051.29"/><line class="cls-50" x1="1720.89" y1="4106.05" x2="1673.34" y2="4078.13"/><line class="cls-50" x1="421.65" y1="1416.51" x2="450.08" y2="1463.75"/><line class="cls-50" x1="395.32" y1="1464.42" x2="422.01" y2="1416.18"/><line class="cls-50" x1="3257.18" y1="1219.03" x2="3552.75" y2="1219.03"/><polyline class="cls-50" points="1981.6 1551.65 1981.6 1507.45 2336.36 1507.45"/><path class="cls-50" d="M2452.78,2363.53" transform="translate(0.5 3.17)"/><polygon class="cls-36" points="3056.58 2296.93 3056.58 2296.78 2923.74 2220.66 3056.58 2144.53 3056.58 2144.39 2923.49 2220.66 3056.58 2296.93"/><polygon class="cls-36" points="3056.76 2296.89 3056.83 2296.85 3189.78 2220.66 3056.83 2144.47 3056.76 2144.43 3056.7 2144.47 3056.58 2144.53 2923.74 2220.66 3056.58 2296.78 3056.7 2296.85 3056.76 2296.89"/><polygon class="cls-36" points="3056.76 2144.43 3056.83 2144.47 3056.83 2144.39 3056.76 2144.43"/><polygon class="cls-36" points="3056.83 2296.93 3056.83 2296.85 3056.76 2296.89 3056.83 2296.93"/><polygon class="cls-36" points="3056.7 2144.39 3056.7 2144.47 3056.76 2144.43 3056.7 2144.39"/><polygon class="cls-36" points="3056.7 2296.93 3056.76 2296.89 3056.7 2296.85 3056.7 2296.93"/><text class="cls-53" transform="translate(2992.26 2206.73) scale(1.01 1)">Mana<tspan class="cls-54" x="91.12" y="0">g</tspan><tspan class="cls-55" x="108.73" y="0">e</tspan><tspan class="cls-56" x="5.52" y="45.6">c</tspan><tspan x="21.24" y="45.6">o</tspan><tspan class="cls-57" x="41.67" y="45.6">n</tspan><tspan class="cls-58" x="61.7" y="45.6">t</tspan><tspan x="74.51" y="45.6">act</tspan></text><polyline class="cls-50" points="2923.74 2221.03 2451.84 2221.03 2451.84 2366.7"/><polyline class="cls-50" points="3602.49 1281.38 3602.49 1577.6 3056.58 1577.6 3056.58 2144.84"/></svg>